<?xml version="1.0" encoding="utf-8"?>
<!-- Generator: Adobe Illustrator 27.1.1, SVG Export Plug-In . SVG Version: 6.00 Build 0)  -->
<svg version="1.1" xmlns="http://www.w3.org/2000/svg" xmlns:xlink="http://www.w3.org/1999/xlink" x="0px" y="0px"
	 viewBox="0 0 795.6 126.8" style="enable-background:new 0 0 795.6 126.8;" xml:space="preserve">
<style type="text/css">
	.Voûte _x002D__x0020_Vert{fill:url(#SVGID_1_);stroke:#FFFFFF;stroke-width:0.25;stroke-miterlimit:1;}
	.st0{display:none;}
	.st1{display:inline;opacity:0.6;fill:none;stroke:#0092D4;stroke-miterlimit:10;}
	.st2{fill:#0792D0;}
	.st3{fill:#E50046;}
</style>
<linearGradient id="SVGID_1_" gradientUnits="userSpaceOnUse" x1="6168.7256" y1="2819.5645" x2="6169.4326" y2="2818.8574">
	<stop  offset="0" style="stop-color:#1DA238"/>
	<stop  offset="0.9831" style="stop-color:#24391D"/>
</linearGradient>
<g id="Fond">
</g>
<g id="Calque_1">
</g>
<g id="Calque_3" class="st0">
	<path class="st1" d="M1823.5,536.3h-7v-15.7c0-2.9-2.3-5.2-5.2-5.2h-11.2v-1.6c0-2.8-2.3-5.1-5.1-5.1h-32.3c-2.8,0-5.1,2.3-5.1,5.1
		v6.9h-10.8c-2.5,0-4.6,2-4.6,4.6v14.4h-5.6c-1.3,0-2.3,1-2.3,2.3v14.4c0,1.3,1,2.3,2.3,2.3h10.2h4.3h24.6c0.5,0,0.9-0.1,1.3-0.2
		c0.4,0.1,0.9,0.2,1.4,0.2h28h4.9h12.1c1.5,0,2.7-1.2,2.7-2.7v-17C1826.2,537.5,1825,536.3,1823.5,536.3z"/>
	<path class="st1" d="M841.5,536.3h-7v-15.7c0-2.9-2.3-5.2-5.2-5.2h-11.2v-1.6c0-2.8-2.3-5.1-5.1-5.1h-32.3c-2.8,0-5.1,2.3-5.1,5.1
		v6.9h-10.8c-2.5,0-4.6,2-4.6,4.6v14.4h-5.6c-1.3,0-2.3,1-2.3,2.3v14.4c0,1.3,1,2.3,2.3,2.3h10.2h4.3h24.6c0.5,0,0.9-0.1,1.3-0.2
		c0.4,0.1,0.9,0.2,1.4,0.2h28h4.9h12.1c1.5,0,2.7-1.2,2.7-2.7v-17C844.2,537.5,843,536.3,841.5,536.3z"/>
</g>
<g id="Mode_Isolation">
	<g>
		<g>
			<path d="M31.6,98.3c-9.4,0-17.4-3.2-23.1-9.2C3,83.4,0,75.3,0,66.4c0-18.8,13-31.9,31.6-31.9l0.5,0c8.7,0.1,16.6,3.9,22.2,10.5
				l0.8,0.9l-8.7,6.6l-0.7-1c-2.3-3.5-7-7.2-13.7-7.2l-0.5,0c-12.2,0-20.4,8.9-20.4,22.1c0,13.2,8.2,22.1,20.4,22.1l0.5,0
				c6.7,0,11.4-3.7,13.7-7.2l0.7-1l8.7,6.6l-0.8,0.9c-5.7,6.7-13.6,10.4-22.2,10.5L31.6,98.3z"/>
		</g>
		<g>
			<path class="st2" d="M541.6,98.3c-9.4,0-17.4-3.2-23.1-9.2c-5.5-5.7-8.5-13.8-8.5-22.7c0-18.8,13-31.9,31.6-31.9l0.5,0
				c8.7,0.1,16.6,3.9,22.2,10.5l0.8,0.9l-8.7,6.6l-0.7-1c-2.3-3.5-7-7.2-13.7-7.2l-0.5,0c-12.2,0-20.4,8.9-20.4,22.1
				c0,13.2,8.2,22.1,20.4,22.1l0.5,0c6.7,0,11.4-3.7,13.7-7.2l0.7-1l8.7,6.6l-0.8,0.9c-5.7,6.7-13.6,10.4-22.2,10.5L541.6,98.3z"/>
		</g>
		<g>
			<path d="M88.8,98.3c-17.9,0-31.4-13.7-31.4-31.9c0-18.2,13.2-31.9,30.7-31.9c17.2,0.1,29.2,12.6,29.2,30.4v4.9H68.5
				c1.5,10.9,9.8,18.7,20.2,18.7c8.7,0,14.9-4.9,17.8-9.6l0.7-1.1l8.3,6.8l-0.7,0.9C108.1,94,99.3,98.3,88.8,98.3z M68.7,60.8h37.1
				c-0.5-10.2-7.2-16.5-17.8-16.5C78.5,44.3,69.5,52.1,68.7,60.8z"/>
		</g>
		<g>
			<path d="M154.9,126.8c-12,0-21.2-3.9-29-12.1l-0.7-0.8l7.8-8.3l0.8,1.1c4.8,6.4,12.9,10.3,21.5,10.3c17.9,0,21.6-11.9,21.6-21.9
				v-7.4c-6.3,7.4-14.7,9-21,9c-17.8,0-31.7-13.6-31.7-30.9c0-17.9,13.3-31.4,30.9-31.4c8.7,0,16.2,3.3,21.7,9.5v-8h10.6v59.2
				C187.4,107,183.2,126.8,154.9,126.8z M156.2,44.3c-11.4,0-20.6,9.6-20.6,21.4c0,11.8,9.2,21.4,20.6,21.4c5.9,0,11.6-2.3,15.5-6.4
				c3.8-4,5.7-9.1,5.5-14.9C177.1,53.1,168.5,44.3,156.2,44.3z"/>
		</g>
		<g>
			<path d="M228.6,98.3c-17.9,0-31.4-13.7-31.4-31.9c0-18.2,13.2-31.9,30.7-31.9C245,34.6,257,47.1,257,64.9v4.9h-48.6
				c1.5,10.9,9.8,18.7,20.2,18.7c8.7,0,14.9-4.9,17.8-9.6l0.7-1.1l8.3,6.8l-0.7,0.9C248,94,239.2,98.3,228.6,98.3z M208.5,60.8h37.1
				c-0.5-10.2-7.2-16.5-17.8-16.5C218.3,44.3,209.3,52.1,208.5,60.8z"/>
		</g>
		<g>
			<path d="M296.2,98.3c-18.7,0-32.3-13.4-32.3-31.9c0-18.5,13.6-31.9,32.3-31.9c6.5,0,15.8,2.5,21.9,9.4V0h10.6v96.8h-10.6v-7.9
				C312,95.8,302.8,98.3,296.2,98.3z M296.2,44.3c-12.3,0-21,9.1-21,22.1c0,13,8.6,22.1,21,22.1c12.7,0,22.2-9.5,22.2-22.1
				S308.9,44.3,296.2,44.3z"/>
		</g>
		<g>
			<path class="st2" d="M763.2,98.3c-18.7,0-32.3-13.4-32.3-31.9c0-18.5,13.6-31.9,32.3-31.9c6.5,0,15.8,2.5,21.9,9.4V0h10.6v96.8
				h-10.6v-7.9C779,95.8,769.7,98.3,763.2,98.3z M763.2,44.3c-12.3,0-21,9.1-21,22.1c0,13,8.6,22.1,21,22.1
				c12.7,0,22.2-9.5,22.2-22.1S775.9,44.3,763.2,44.3z"/>
		</g>
		<g>
			<path d="M349.8,21.8c-3.5,0-7.2-2.9-7.2-7.1c0-4.3,3.7-7.1,7.2-7.1c3.5,0,7.1,2.9,7.1,7.1C356.9,18.9,353.2,21.8,349.8,21.8z"/>
		</g>
		<g>
			<path d="M355,96.8h-10.6V36H355V96.8z"/>
		</g>
		<g>
			<path d="M460.4,96.8h-10.6V61.5c0-12.4-3.8-17.2-13.6-17.2c-13.9,0-15.4,14.1-15.4,20.2v32.3h-10.5V61.5
				c0-12.4-3.8-17.2-13.6-17.2c-0.6,0-15.4,0.2-15.4,21.4v31.2h-10.5V50.2c0-3.2-0.2-6.3-0.4-9.5c-0.1-1.1-0.1-2.3-0.2-3.4l-0.1-1.2
				h11.2v6.8c4.3-5.1,11.1-8.3,18-8.3c6.2,0,14.3,1.9,18.7,10.6c3.9-6.5,11.3-10.6,19.2-10.6c15.1,0,23.2,8.3,23.2,24V96.8z"/>
		</g>
		<g>
			<path class="st2" d="M652.3,45.3c-6-6.6-13.6-9.9-22.6-9.9c-9.1,0-16.7,3.3-22.7,9.9c-5.4,6-8.1,13.1-8.1,21.3
				c0,8.2,2.9,15.5,8.6,21.6c5.7,6.2,13.2,9.3,22.2,9.3c9,0,16.4-3.1,22.2-9.3c5.7-6.1,8.6-13.4,8.6-21.6
				C660.4,58.4,657.7,51.2,652.3,45.3L652.3,45.3z M650,66.7c0,3.8-0.9,7.3-2.8,10.6c-1.8,3.2-4.3,5.8-7.4,7.5
				c-3.1,1.8-6.6,2.7-10.3,2.7c-3.7,0-7.2-0.9-10.3-2.7c-3.1-1.8-5.6-4.3-7.4-7.5c-1.8-3.3-2.8-6.8-2.8-10.6c0-5.9,2-10.8,6-15
				c4-4.2,8.8-6.2,14.4-6.2c5.6,0,10.3,2,14.4,6.2C648,55.9,650,60.8,650,66.7z"/>
			<path class="st2" d="M711.5,36.8v27.7c0,8.5-0.5,11.9-1,13.3c-1,2.9-2.7,5.1-5.2,6.9c-2.5,1.8-5.7,2.6-9.4,2.6
				c-3.7,0-6.9-0.9-9.5-2.7c-2.6-1.8-4.4-4.2-5.3-7.3c-0.6-2.3-1-6.6-1-12.8V36.8h-10.3v28.6c0,8.3,0.9,14.4,2.8,18.6
				c1.9,4.2,4.9,7.6,8.8,10c3.9,2.4,8.8,3.6,14.5,3.6c5.7,0,10.6-1.2,14.4-3.6c3.9-2.4,6.8-5.7,8.7-9.9c1.9-4.2,2.9-10.1,2.9-18.1
				V36.8H711.5z"/>
		</g>
		<rect x="579.2" class="st2" width="10.6" height="96.8"/>
		<path class="st3" d="M494.2,95.3c0,0.8-0.7,1.5-1.5,1.5H483c-0.8,0-1.5-0.7-1.5-1.5v-9.7c0-0.8,0.7-1.5,1.5-1.5h9.7
			c0.8,0,1.5,0.7,1.5,1.5V95.3z"/>
	</g>
</g>
</svg>
