<svg xmlns="http://www.w3.org/2000/svg" id="LOGOTYPE" viewBox="0 0 504 424.3"><g><polygon points="112.3 112.8 112.3 77.9 7.8 77.9 7.8 147.6 42.6 147.6 42.6 112.8 112.3 112.8" style="fill: #32c2df"></polygon><rect x="460.7" y="8.3" width="34.8" height="34.84" style="fill: #32c2df"></rect><rect x="182" y="147.6" width="34.8" height="34.84" style="fill: #32c2df"></rect><rect x="42.6" y="147.6" width="104.5" height="34.84" style="fill: #32c2df"></rect><rect x="286.5" y="77.9" width="34.8" height="104.51" style="fill: #32c2df"></rect><polygon points="356.2 147.6 356.2 182.5 391 182.5 425.8 182.5 425.8 147.6 391 147.6 356.2 147.6" style="fill: #32c2df"></polygon><path d="M495.6,132.4c0-64-104.6-47.8-104.6-75,0-9.2,14.2-14.3,34.9-14.2V8.3c-40.3,0-69.6,23.6-69.6,52.1,0,59.2,104.5,44.4,104.5,72v15.2h34.8V132.4Z" style="fill: #32c2df"></path><rect x="286.5" y="8.3" width="34.8" height="34.84" style="fill: #32c2df"></rect><polygon points="147.2 43.1 182 43.1 182 112.8 216.8 112.8 216.8 43.1 251.7 43.1 251.7 8.3 147.2 8.3 147.2 43.1" style="fill: #32c2df"></polygon><rect x="7.8" y="8.3" width="104.5" height="34.84" style="fill: #32c2df"></rect></g><g><path d="M34.3,266.1v2.5H7.8V228.9h26v2.6H10.7v15.6H30.9v2.5H10.7v16.5ZM22.6,223l-2-.9,3.5-4.8h3.2Z" style="fill: #fff"></path><path d="M51.6,269.2a10.9,10.9,0,0,1-5.5-1.3,13.4,13.4,0,0,1-4.2-3.3,14.2,14.2,0,0,1-2.7-4.8,15.4,15.4,0,0,1-1-5.6,15.6,15.6,0,0,1,1.1-5.7,13.1,13.1,0,0,1,3-4.8,13.1,13.1,0,0,1,4.4-3.3,11.4,11.4,0,0,1,5.5-1.3,12.4,12.4,0,0,1,6.4,1.8,15.5,15.5,0,0,1,4.6,4.6v-5.9h2.6v41H63V262.4C59.9,266.9,56.1,269.2,51.6,269.2Zm.7-2.5a11.4,11.4,0,0,0,4.5-1,13.6,13.6,0,0,0,3.6-2.7,19.7,19.7,0,0,0,2.6-3.8v-9.5a7.2,7.2,0,0,0-1.3-3,9.9,9.9,0,0,0-2.4-2.6,10.6,10.6,0,0,0-3.3-1.8,10.2,10.2,0,0,0-3.4-.6,10.4,10.4,0,0,0-4.7,1,12.8,12.8,0,0,0-3.6,2.9,15.2,15.2,0,0,0-2.4,4.1,13.8,13.8,0,0,0,.6,10.7,12.7,12.7,0,0,0,4,4.6A10.4,10.4,0,0,0,52.3,266.7Z" style="fill: #fff"></path><path d="M74.2,256.4V239.6H77V256c0,3.6.6,6.3,1.9,8a6.1,6.1,0,0,0,5.5,2.7,11.2,11.2,0,0,0,4.7-1.1,13.1,13.1,0,0,0,4-3.1,12.3,12.3,0,0,0,2.6-4.6V239.6h2.8V265a1.7,1.7,0,0,0,.3,1,1.2,1.2,0,0,0,.9.3v2.3H98.3a1.9,1.9,0,0,1-1.6-.8,2.4,2.4,0,0,1-.7-1.7v-4.3a14.5,14.5,0,0,1-5.3,5.4,13.9,13.9,0,0,1-7.2,2,8.2,8.2,0,0,1-6.9-3.2Q74.2,262.7,74.2,256.4Z" style="fill: #fff"></path><path d="M107.4,232.9v-5.1h2.8v5.1Zm0,35.7V239.5h2.8v29.1Z" style="fill: #fff"></path><path d="M133.2,269.2a12,12,0,0,1-6.7-2,15.4,15.4,0,0,1-4.7-4.8v18.2H119v-41h2.5v5.8a14.8,14.8,0,0,1,4.8-4.5,12.1,12.1,0,0,1,6.3-1.8,13.2,13.2,0,0,1,5.6,1.3,14.5,14.5,0,0,1,4.4,3.4,16.6,16.6,0,0,1,2.9,4.8,15.4,15.4,0,0,1,1,5.6,15.2,15.2,0,0,1-1.7,7.4,13.1,13.1,0,0,1-4.6,5.5A12,12,0,0,1,133.2,269.2Zm-.7-2.5a9.8,9.8,0,0,0,4.6-1.1,9.7,9.7,0,0,0,3.5-2.8,12.3,12.3,0,0,0,2.3-4,14.4,14.4,0,0,0,.8-4.6,12.8,12.8,0,0,0-.9-4.8,15,15,0,0,0-2.5-4,14.1,14.1,0,0,0-3.7-2.7,10,10,0,0,0-4.6-1,9.5,9.5,0,0,0-3.2.6,17.3,17.3,0,0,0-3.3,1.7,11.8,11.8,0,0,0-2.5,2.5,6.3,6.3,0,0,0-1.2,3V259a14,14,0,0,0,2.6,3.9,12.9,12.9,0,0,0,3.7,2.8A11.3,11.3,0,0,0,132.5,266.7Z" style="fill: #fff"></path><path d="M165.6,269.2a13.9,13.9,0,0,1-10.3-4.5,15,15,0,0,1-3-4.8,16.7,16.7,0,0,1-1.1-5.9,14.3,14.3,0,0,1,1.9-7.4,13.3,13.3,0,0,1,5.1-5.4,12.9,12.9,0,0,1,7.2-2.1,13.3,13.3,0,0,1,7.4,2.1,15.2,15.2,0,0,1,5,5.4,14.8,14.8,0,0,1,1.9,7.4v1.3H154.1a13.3,13.3,0,0,0,1.9,5.9,12.1,12.1,0,0,0,4.2,4.2,9.6,9.6,0,0,0,5.5,1.6,11.7,11.7,0,0,0,5.7-1.6,8.6,8.6,0,0,0,3.8-4l2.4.6a8.6,8.6,0,0,1-2.6,3.7,12.4,12.4,0,0,1-4.3,2.6A14.4,14.4,0,0,1,165.6,269.2ZM154,253.1h23a11.8,11.8,0,0,0-1.8-6,11,11,0,0,0-4.1-4.2,11.2,11.2,0,0,0-11.2,0,11.8,11.8,0,0,0-4.1,4.2A14.1,14.1,0,0,0,154,253.1Z" style="fill: #fff"></path><path d="M195.1,269.2a17.1,17.1,0,0,1-6.5-1.2,14.3,14.3,0,0,1-5.2-3.6l1.3-1.9a16.3,16.3,0,0,0,4.9,3.3,13.2,13.2,0,0,0,5.3,1.1,11,11,0,0,0,6.1-1.6,4.8,4.8,0,0,0,2.3-4.4,3.9,3.9,0,0,0-1-2.9,9.6,9.6,0,0,0-3.2-1.7l-4.9-1.3a42.7,42.7,0,0,1-5-1.6,7.5,7.5,0,0,1-3.1-2.2,5.7,5.7,0,0,1-1-3.6,8.3,8.3,0,0,1,1.4-4.8,9.1,9.1,0,0,1,3.9-2.7,13.3,13.3,0,0,1,5.4-1,14,14,0,0,1,6,1.2,8.8,8.8,0,0,1,3.8,2.9l-1.5,1.8a7.3,7.3,0,0,0-3.6-2.6,13,13,0,0,0-4.9-.9,15.2,15.2,0,0,0-3.8.5,5.9,5.9,0,0,0-2.9,1.9,4.4,4.4,0,0,0-1.1,3.3,4.6,4.6,0,0,0,.8,2.7,5.5,5.5,0,0,0,2.4,1.5l4.1,1.2c2.2.6,4.2,1.2,5.8,1.8a8.2,8.2,0,0,1,3.8,2.3,5.6,5.6,0,0,1,1.4,4,7.4,7.4,0,0,1-3,6.2A13.1,13.1,0,0,1,195.1,269.2Z" style="fill: #fff"></path><path d="M254.1,231.5H239.5v37.1h-2.8V231.5H222.1v-2.6h32Z" style="fill: #fff"></path><path d="M267.7,242a11.4,11.4,0,0,0-6.8,2.4,10.7,10.7,0,0,0-4.1,6v18.2H254v-29h2.7v7.1a13.3,13.3,0,0,1,4-5,10.2,10.2,0,0,1,5.3-2.2h1.7Z" style="fill: #fff"></path><path d="M270.4,260.3a6.8,6.8,0,0,1,1.6-4.6,9.8,9.8,0,0,1,4.3-3,17.3,17.3,0,0,1,6.3-1.1,38.9,38.9,0,0,1,4.7.4,24.5,24.5,0,0,1,4.3,1.1v-2.8a9.1,9.1,0,0,0-2.3-6.4,8.6,8.6,0,0,0-6.4-2.4,12.9,12.9,0,0,0-4.6.9,25.4,25.4,0,0,0-4.8,2.6l-1.2-2a29.5,29.5,0,0,1,5.5-2.9,17.1,17.1,0,0,1,5.3-1,11.3,11.3,0,0,1,8.3,3.1q3,3,3,8.4V265a1.7,1.7,0,0,0,.3,1,1.2,1.2,0,0,0,.9.3v2.3h-1.4a2.4,2.4,0,0,1-1.6-.9,3.3,3.3,0,0,1-.7-1.6v-2.3a12.1,12.1,0,0,1-5.2,3.9,16.6,16.6,0,0,1-6.6,1.4,9.9,9.9,0,0,1-4.9-1.2,7.8,7.8,0,0,1-3.5-3.2A7.9,7.9,0,0,1,270.4,260.3Zm20.1,2.4.8-1.4a3.5,3.5,0,0,0,.3-1.2v-4.8a16.6,16.6,0,0,0-4.2-1.2,22.8,22.8,0,0,0-4.5-.4,13.6,13.6,0,0,0-7.1,1.7,5.4,5.4,0,0,0-2.7,4.7,5.9,5.9,0,0,0,1,3.4,6.9,6.9,0,0,0,2.6,2.5,8.8,8.8,0,0,0,4,1,14,14,0,0,0,5.8-1.2A10.7,10.7,0,0,0,290.5,262.7Z" style="fill: #fff"></path><path d="M302.9,232.9v-5.1h2.8v5.1Zm0,35.7V239.5h2.8v29.1Z" style="fill: #fff"></path><path d="M327.5,267.5l-1.1.5a9.3,9.3,0,0,1-2.2.8,8.2,8.2,0,0,1-2.8.4,6.4,6.4,0,0,1-2.8-.6,4.6,4.6,0,0,1-2.1-1.8,4.4,4.4,0,0,1-.8-2.8V241.9h-4.1v-2.3h4.1v-10h2.8v10h6.7v2.3h-6.7v21.4a3.1,3.1,0,0,0,1.1,2.5,4.6,4.6,0,0,0,2.5.8,6.7,6.7,0,0,0,3-.6l1.5-.8Z" style="fill: #fff"></path><path d="M344.2,269.2a13.9,13.9,0,0,1-5.7-1.2,15,15,0,0,1-4.6-3.3,19.5,19.5,0,0,1-3-4.8,16.7,16.7,0,0,1-1.1-5.9,14.3,14.3,0,0,1,1.9-7.4,13.3,13.3,0,0,1,5.1-5.4,13.7,13.7,0,0,1,14.6,0,16.5,16.5,0,0,1,5.1,5.4,15.9,15.9,0,0,1,1.8,7.4v1.3H332.7a13.3,13.3,0,0,0,1.9,5.9,12.1,12.1,0,0,0,4.2,4.2,9.8,9.8,0,0,0,5.5,1.6,11.1,11.1,0,0,0,5.7-1.6,8.6,8.6,0,0,0,3.8-4l2.5.6a9.8,9.8,0,0,1-2.7,3.7,12.4,12.4,0,0,1-4.3,2.6A14.4,14.4,0,0,1,344.2,269.2Zm-11.6-16.1h23a12.8,12.8,0,0,0-1.7-6,12.1,12.1,0,0,0-4.2-4.2,10.7,10.7,0,0,0-5.6-1.5,10.9,10.9,0,0,0-5.6,1.5,11.8,11.8,0,0,0-4.1,4.2A14.1,14.1,0,0,0,332.6,253.1Z" style="fill: #fff"></path><path d="M407.3,268.6h-2.8V252.5c0-3.7-.6-6.4-1.7-8.2a6,6,0,0,0-5.3-2.6,9.3,9.3,0,0,0-6.3,2.5,13.1,13.1,0,0,0-3.9,6.5v17.9h-2.8V252.5c0-3.7-.6-6.5-1.7-8.2a5.9,5.9,0,0,0-5.2-2.6,9.2,9.2,0,0,0-6.4,2.5,13.7,13.7,0,0,0-3.9,6.5v17.9h-2.8v-29h2.6v7a13.7,13.7,0,0,1,4.8-5.5,11.3,11.3,0,0,1,6.4-2,8.4,8.4,0,0,1,5.9,2.2A8.7,8.7,0,0,1,387,247a16.3,16.3,0,0,1,4.9-5.9,11.4,11.4,0,0,1,6.5-2,8.6,8.6,0,0,1,4.1.9,7.2,7.2,0,0,1,2.7,2.5,10.1,10.1,0,0,1,1.6,4.1,29.2,29.2,0,0,1,.5,5.4Z" style="fill: #fff"></path><path d="M428.1,269.2a13.2,13.2,0,0,1-5.7-1.2,13.9,13.9,0,0,1-4.6-3.3,15,15,0,0,1-3-4.8,16.7,16.7,0,0,1-1.1-5.9,14.3,14.3,0,0,1,1.9-7.4,13.3,13.3,0,0,1,5.1-5.4,12.7,12.7,0,0,1,7.2-2.1,13.3,13.3,0,0,1,7.4,2.1,15.2,15.2,0,0,1,5,5.4,14.8,14.8,0,0,1,1.9,7.4v1.3H416.6a13.3,13.3,0,0,0,1.9,5.9,11,11,0,0,0,4.1,4.2,10.1,10.1,0,0,0,5.6,1.6,11.7,11.7,0,0,0,5.7-1.6,8.6,8.6,0,0,0,3.8-4l2.4.6a8.6,8.6,0,0,1-2.6,3.7,13.4,13.4,0,0,1-4.3,2.6A14.4,14.4,0,0,1,428.1,269.2Zm-11.6-16.1h23a11.8,11.8,0,0,0-1.8-6,11,11,0,0,0-9.7-5.7,10.7,10.7,0,0,0-5.6,1.5,11,11,0,0,0-4.1,4.2A14.1,14.1,0,0,0,416.5,253.1Z" style="fill: #fff"></path><path d="M472.2,268.6h-2.8V252.5c0-3.7-.6-6.5-1.6-8.2a5.7,5.7,0,0,0-5.1-2.6,10.3,10.3,0,0,0-4.8,1.2,13,13,0,0,0-4.2,3.2,11.5,11.5,0,0,0-2.5,4.6v17.9h-2.8v-29H451v7a13,13,0,0,1,3.1-3.9,15,15,0,0,1,4.4-2.6,14.4,14.4,0,0,1,5-1,8.2,8.2,0,0,1,4,.9,7.2,7.2,0,0,1,2.7,2.5,11.1,11.1,0,0,1,1.5,4,29.5,29.5,0,0,1,.5,5.5Z" style="fill: #fff"></path><path d="M493.3,267.5l-1.1.5a10.2,10.2,0,0,1-2.1.8,8.8,8.8,0,0,1-2.9.4,6.7,6.7,0,0,1-2.8-.6,4.6,4.6,0,0,1-2.1-1.8,5.1,5.1,0,0,1-.8-2.8V241.9h-4.1v-2.3h4.1v-10h2.8v10h6.8v2.3h-6.8v21.4a3.5,3.5,0,0,0,1.2,2.5,4.1,4.1,0,0,0,2.5.8,7.3,7.3,0,0,0,3-.6l1.5-.8Z" style="fill: #fff"></path><path d="M7,321.4a15.9,15.9,0,0,1,1.7-7.5,14.2,14.2,0,0,1,4.8-5.5,11.7,11.7,0,0,1,6.9-2.1,12,12,0,0,1,6.7,2,15.3,15.3,0,0,1,4.6,4.9V295h2.8v37.1a1.3,1.3,0,0,0,.3,1,1,1,0,0,0,.9.4v2.3H34.3a2.3,2.3,0,0,1-1.6-1,2.1,2.1,0,0,1-.7-1.6V330a13.5,13.5,0,0,1-4.8,4.7,12.9,12.9,0,0,1-6.2,1.7,11.8,11.8,0,0,1-5.6-1.3,14.5,14.5,0,0,1-4.5-3.3A16.6,16.6,0,0,1,8,327,15.4,15.4,0,0,1,7,321.4Zm24.7,4.7v-9.6a9.3,9.3,0,0,0-2.5-3.8,14.8,14.8,0,0,0-3.9-2.8,10.2,10.2,0,0,0-4.3-1.1,10.1,10.1,0,0,0-4.6,1.1,12,12,0,0,0-3.5,2.8,12.7,12.7,0,0,0-2.3,4.1,14.4,14.4,0,0,0-.8,4.6,12.9,12.9,0,0,0,3.4,8.8,14.1,14.1,0,0,0,3.7,2.7,10,10,0,0,0,4.6,1,9.5,9.5,0,0,0,3.2-.6,14.1,14.1,0,0,0,3.2-1.7,12.5,12.5,0,0,0,2.6-2.5A6.3,6.3,0,0,0,31.7,326.1Z" style="fill: #fff"></path><path d="M55.8,336.4a13.2,13.2,0,0,1-5.7-1.2,13.9,13.9,0,0,1-4.6-3.3,15,15,0,0,1-3-4.8,16.7,16.7,0,0,1-1.1-5.9,14.9,14.9,0,0,1,1.9-7.5,14.1,14.1,0,0,1,5-5.3,13.9,13.9,0,0,1,14.7,0,15.2,15.2,0,0,1,5,5.4,14.6,14.6,0,0,1,1.9,7.4v.7a1.3,1.3,0,0,1-.1.6H44.3a13.7,13.7,0,0,0,1.9,5.9,11.4,11.4,0,0,0,9.7,5.8,11.7,11.7,0,0,0,5.7-1.6,9.1,9.1,0,0,0,3.8-4l2.4.6a9.3,9.3,0,0,1-2.6,3.7,13.4,13.4,0,0,1-4.3,2.6A14.4,14.4,0,0,1,55.8,336.4ZM44.2,320.3h23a11.8,11.8,0,0,0-1.8-6,11,11,0,0,0-9.7-5.7,10.7,10.7,0,0,0-5.6,1.5,11,11,0,0,0-4.1,4.2A12.8,12.8,0,0,0,44.2,320.3Z" style="fill: #fff"></path><path d="M90.7,295h2.8v35.3a3.6,3.6,0,0,0,.9,2.8,3.1,3.1,0,0,0,2.2.7h1.8l1.7-.5.5,2.3-2.3.6-2.4.3a5.4,5.4,0,0,1-3.8-1.4,5.6,5.6,0,0,1-1.4-3.9Z" style="fill: #fff"></path><path d="M101.9,305.6l.8-5.5h-1V295h2.9v5.1l-1.2,5.5Z" style="fill: #fff"></path><path d="M113.2,335.8V296.1h2.9v39.7Z" style="fill: #fff"></path><path d="M149.5,335.8h-2.8V319.7c0-3.8-.6-6.5-1.6-8.2a5.7,5.7,0,0,0-5.1-2.6,10.3,10.3,0,0,0-4.8,1.2,13,13,0,0,0-4.2,3.2,11.5,11.5,0,0,0-2.5,4.6v17.9h-2.8v-29h2.6v6.9a14,14,0,0,1,3.1-3.8,15,15,0,0,1,4.4-2.6,12.4,12.4,0,0,1,5-1,8.2,8.2,0,0,1,4,.9,7.2,7.2,0,0,1,2.7,2.5,11.1,11.1,0,0,1,1.5,4,29.5,29.5,0,0,1,.5,5.5Z" style="fill: #fff"></path><path d="M158.9,335.8V309h-4.1v-2.3h4.1v-.9a18.1,18.1,0,0,1,1-6.1,8.9,8.9,0,0,1,2.9-4,7.2,7.2,0,0,1,4.4-1.3,11.3,11.3,0,0,1,3.2.5,7.9,7.9,0,0,1,2.6,1.3l-1,2.1a5,5,0,0,0-1.9-1.1,9.9,9.9,0,0,0-2.4-.3,5,5,0,0,0-4.4,2.2c-1.1,1.5-1.6,3.7-1.6,6.6v1H170V309h-8.3v26.8Z" style="fill: #fff"></path><path d="M186.5,336.4a13.1,13.1,0,0,1-5.6-1.2,13.6,13.6,0,0,1-4.6-3.2,16.6,16.6,0,0,1-2.9-4.8,15.8,15.8,0,0,1-1.1-5.8,16.2,16.2,0,0,1,1.1-5.8,15,15,0,0,1,3-4.8,14.5,14.5,0,0,1,4.5-3.3,13.1,13.1,0,0,1,5.6-1.2,12.8,12.8,0,0,1,5.6,1.2,13.9,13.9,0,0,1,4.6,3.3,15,15,0,0,1,3,4.8,16.2,16.2,0,0,1,1.1,5.8,15.8,15.8,0,0,1-1.1,5.8,15,15,0,0,1-3,4.8,14.2,14.2,0,0,1-4.5,3.2A13.5,13.5,0,0,1,186.5,336.4Zm-11.4-15a12.3,12.3,0,0,0,1.6,6.3,11.1,11.1,0,0,0,4.1,4.5,10.4,10.4,0,0,0,11.4,0,13.1,13.1,0,0,0,0-21.7,10.3,10.3,0,0,0-5.7-1.7,9.7,9.7,0,0,0-5.7,1.8,12.7,12.7,0,0,0-4.1,4.5A12.3,12.3,0,0,0,175.1,321.4Z" style="fill: #fff"></path><path d="M221.2,309.2a11.4,11.4,0,0,0-6.8,2.4,11.2,11.2,0,0,0-4.1,6v18.2h-2.8v-29h2.7v7.1a13.3,13.3,0,0,1,4-5,9.5,9.5,0,0,1,5.3-2.2h1.7Z" style="fill: #fff"></path><path d="M269.3,335.8h-2.8V319.7c0-3.7-.5-6.4-1.7-8.2a5.7,5.7,0,0,0-5.2-2.6,9.2,9.2,0,0,0-6.4,2.5,13.7,13.7,0,0,0-3.8,6.5v17.9h-2.8V319.7c0-3.8-.6-6.5-1.7-8.2a5.9,5.9,0,0,0-5.2-2.6,9.2,9.2,0,0,0-6.4,2.5,13.7,13.7,0,0,0-3.9,6.5v17.9h-2.8v-29h2.6v6.9a13.3,13.3,0,0,1,4.8-5.4,11,11,0,0,1,6.3-2,8.1,8.1,0,0,1,6,2.2,8.7,8.7,0,0,1,2.8,5.7,16.3,16.3,0,0,1,4.9-5.9,11.4,11.4,0,0,1,6.5-2,8.6,8.6,0,0,1,4.1.9,7.2,7.2,0,0,1,2.7,2.5,11.2,11.2,0,0,1,1.6,4,30.2,30.2,0,0,1,.4,5.5Z" style="fill: #fff"></path><path d="M275.4,327.5a6.8,6.8,0,0,1,1.6-4.6,9.3,9.3,0,0,1,4.3-3,17.3,17.3,0,0,1,6.3-1.1,24.5,24.5,0,0,1,4.6.4,23.5,23.5,0,0,1,4.4,1.1v-2.8a8.8,8.8,0,0,0-2.4-6.4,8.4,8.4,0,0,0-6.4-2.4,12.9,12.9,0,0,0-4.5.9,22.7,22.7,0,0,0-4.8,2.6l-1.2-2a26.7,26.7,0,0,1,5.5-2.9,16.6,16.6,0,0,1,5.3-1c3.5,0,6.2,1,8.2,3.1a11.4,11.4,0,0,1,3.1,8.4v14.3a1.3,1.3,0,0,0,.3,1,1,1,0,0,0,.9.4v2.3h-1.4a2.6,2.6,0,0,1-1.7-.9,2.5,2.5,0,0,1-.6-1.6v-2.3a13.5,13.5,0,0,1-5.2,3.9,16.6,16.6,0,0,1-6.6,1.4,10.3,10.3,0,0,1-5-1.2,8.1,8.1,0,0,1-3.4-3.2A7.9,7.9,0,0,1,275.4,327.5Zm20,2.4a8,8,0,0,0,.9-1.4,3.5,3.5,0,0,0,.3-1.3v-4.8a21.7,21.7,0,0,0-4.2-1.1,22.8,22.8,0,0,0-4.5-.4,13.6,13.6,0,0,0-7.1,1.7,5.4,5.4,0,0,0-2.7,4.7,6.7,6.7,0,0,0,.9,3.4,7.8,7.8,0,0,0,6.6,3.5,13.7,13.7,0,0,0,5.8-1.2A10,10,0,0,0,295.4,329.9Z" style="fill: #fff"></path><path d="M320.6,334.7l-1.1.5a8.4,8.4,0,0,1-2.1.8,8.8,8.8,0,0,1-2.9.4,6.7,6.7,0,0,1-2.8-.6,4.6,4.6,0,0,1-2.1-1.8,5.1,5.1,0,0,1-.8-2.8V309.1h-4.1v-2.3h4.1v-10h2.8v10h6.8v2.3h-6.8v21.4a3.1,3.1,0,0,0,1.2,2.4,3.7,3.7,0,0,0,2.5.9,7.3,7.3,0,0,0,3-.6l1.5-.8Z" style="fill: #fff"></path><path d="M325.6,300.1V295h2.8v5.1Zm0,35.7V306.7h2.8v29.1Z" style="fill: #fff"></path><path d="M349.4,336.4a13.2,13.2,0,0,1-5.7-1.2,12.3,12.3,0,0,1-4.5-3.2,15,15,0,0,1-3-4.8,15.8,15.8,0,0,1-1.1-5.8,16.2,16.2,0,0,1,1.1-5.8,15,15,0,0,1,3-4.8,14.5,14.5,0,0,1,4.5-3.3,13.9,13.9,0,0,1,11.3,0,14.5,14.5,0,0,1,4.5,3.3,15,15,0,0,1,3,4.8,16.2,16.2,0,0,1,1.1,5.8,15.8,15.8,0,0,1-1.1,5.8,15,15,0,0,1-3,4.8,14.2,14.2,0,0,1-4.5,3.2A13.4,13.4,0,0,1,349.4,336.4Zm-11.5-15a12.3,12.3,0,0,0,1.6,6.3,11.9,11.9,0,0,0,4.1,4.5,10.4,10.4,0,0,0,11.4,0,12.4,12.4,0,0,0,4.2-4.6,13.8,13.8,0,0,0,0-12.5,13,13,0,0,0-4.1-4.6,10.6,10.6,0,0,0-5.7-1.7,10.2,10.2,0,0,0-5.8,1.8,12.7,12.7,0,0,0-4.1,4.5A12.3,12.3,0,0,0,337.9,321.4Z" style="fill: #fff"></path><path d="M394.1,335.8h-2.8V319.7c0-3.8-.5-6.5-1.6-8.2a5.7,5.7,0,0,0-5.1-2.6,10.7,10.7,0,0,0-4.8,1.2,13,13,0,0,0-4.2,3.2,12.9,12.9,0,0,0-2.5,4.6v17.9h-2.8v-29h2.6v6.9a14.4,14.4,0,0,1,3.2-3.8,14.5,14.5,0,0,1,4.3-2.6,12.4,12.4,0,0,1,5-1,8.6,8.6,0,0,1,4.1.9,7.2,7.2,0,0,1,2.7,2.5,11.1,11.1,0,0,1,1.4,4,29.5,29.5,0,0,1,.5,5.5Z" style="fill: #fff"></path><path d="M21.4,403.6a14,14,0,0,1-5.8-1.2,14.5,14.5,0,0,1-4.5-3.3,14.4,14.4,0,0,1-3-4.9A14,14,0,0,1,7,388.4a16,16,0,0,1,1.8-7.5,13.7,13.7,0,0,1,5.1-5.3,13.2,13.2,0,0,1,7.3-2.1,12.8,12.8,0,0,1,7.3,2.1,15.5,15.5,0,0,1,5.1,5.4,15.7,15.7,0,0,1,1.9,7.4v.7a4.3,4.3,0,0,1-.1.5H9.9a12.4,12.4,0,0,0,1.8,6,12.1,12.1,0,0,0,4.2,4.2,10.9,10.9,0,0,0,5.6,1.5,11.6,11.6,0,0,0,5.7-1.5,8.6,8.6,0,0,0,3.7-4.1l2.5.7a9.6,9.6,0,0,1-2.7,3.7,14.9,14.9,0,0,1-4.2,2.6A14.4,14.4,0,0,1,21.4,403.6ZM9.8,387.5h23a15,15,0,0,0-1.8-6.1,12.4,12.4,0,0,0-4.1-4.1,11,11,0,0,0-5.7-1.5,10.9,10.9,0,0,0-5.6,1.5,12.1,12.1,0,0,0-4,4.1A12.5,12.5,0,0,0,9.8,387.5Z" style="fill: #fff"></path><path d="M54.4,401.9l-1.1.5a9.3,9.3,0,0,1-2.2.8,8.2,8.2,0,0,1-2.8.4,6.4,6.4,0,0,1-2.8-.6,4.6,4.6,0,0,1-2.1-1.8,4.5,4.5,0,0,1-.8-2.9v-22H38.5V374h4.1V364h2.8v10h6.8v2.3H45.4v21.4a2.8,2.8,0,0,0,1.2,2.4,3.6,3.6,0,0,0,2.4.9,6.7,6.7,0,0,0,3-.6l1.6-.8Z" style="fill: #fff"></path><path d="M97.7,369.9a13,13,0,0,0-2.2-1.9,9.9,9.9,0,0,0-2.5-1.3,12.3,12.3,0,0,0-2.9-.9l-3.3-.2c-3.9,0-6.8.7-8.5,2.2a7.1,7.1,0,0,0-2.7,5.9,6.2,6.2,0,0,0,1.2,4,8.3,8.3,0,0,0,3.8,2.4,42.9,42.9,0,0,0,6.7,1.7,51.3,51.3,0,0,1,7.4,2.1,11.8,11.8,0,0,1,4.9,3.3,8.7,8.7,0,0,1,1.7,5.6,11.1,11.1,0,0,1-1,4.6,9.4,9.4,0,0,1-3,3.3,13.3,13.3,0,0,1-4.5,1.9,20.5,20.5,0,0,1-5.8.7,22,22,0,0,1-5.8-.7,22.2,22.2,0,0,1-5.3-1.9,24.3,24.3,0,0,1-4.6-3.3l1.5-2.3a16.1,16.1,0,0,0,2.8,2.4,25.5,25.5,0,0,0,3.3,1.7,29.1,29.1,0,0,0,3.9,1.2,31.3,31.3,0,0,0,4.3.4,15.8,15.8,0,0,0,8.2-1.9,7.3,7.3,0,0,0,1.6-10,9.6,9.6,0,0,0-4.2-2.7,48.5,48.5,0,0,0-7-1.9,57.6,57.6,0,0,1-7.1-2,10.7,10.7,0,0,1-4.4-3,8.2,8.2,0,0,1-1.5-5.2,9.7,9.7,0,0,1,1.8-6,9.9,9.9,0,0,1,4.9-3.8,18.8,18.8,0,0,1,7.4-1.3,22.6,22.6,0,0,1,4.7.5,13.4,13.4,0,0,1,4.1,1.5,17.7,17.7,0,0,1,3.5,2.6Z" style="fill: #fff"></path><path d="M108.5,412.9h1.6l1.1-.2a2.7,2.7,0,0,0,1-.9,15.6,15.6,0,0,0,1.4-2.7c.6-1.4,1.5-3.4,2.6-6.1l-13-29h2.9l11.6,26.1L128.4,374h2.8l-15.9,38.2a8.6,8.6,0,0,1-1,1.6,3.8,3.8,0,0,1-1.4,1.1,4.2,4.2,0,0,1-2,.5h-2.4Z" style="fill: #fff"></path><path d="M145.3,403.6a17.5,17.5,0,0,1-6.5-1.2,15.2,15.2,0,0,1-5.2-3.6l1.3-1.9a16.3,16.3,0,0,0,4.9,3.3,13.3,13.3,0,0,0,5.4,1,10.7,10.7,0,0,0,6-1.5,5,5,0,0,0,2.4-4.4,4,4,0,0,0-1.1-2.9,9.6,9.6,0,0,0-3.2-1.7c-1.3-.4-3-.9-4.9-1.3a40.9,40.9,0,0,1-5-1.7,6.6,6.6,0,0,1-3.1-2.1,5.8,5.8,0,0,1-1-3.7,7.9,7.9,0,0,1,1.4-4.7,10.3,10.3,0,0,1,3.9-2.8,15.3,15.3,0,0,1,5.4-.9,15.7,15.7,0,0,1,6,1.1,10.1,10.1,0,0,1,3.9,3l-1.6,1.8a8.2,8.2,0,0,0-3.6-2.7,15.1,15.1,0,0,0-8.7-.3,6.5,6.5,0,0,0-2.9,1.8,5.3,5.3,0,0,0-1.1,3.4,4,4,0,0,0,.8,2.6,5.3,5.3,0,0,0,2.4,1.6l4.1,1.2c2.2.6,4.2,1.2,5.8,1.8a8.3,8.3,0,0,1,3.9,2.3,5.4,5.4,0,0,1,1.3,4,7.4,7.4,0,0,1-3,6.2A13.1,13.1,0,0,1,145.3,403.6Z" style="fill: #fff"></path><path d="M175.9,401.9l-1.1.5a9.3,9.3,0,0,1-2.2.8,8.2,8.2,0,0,1-2.8.4,6.4,6.4,0,0,1-2.8-.6,4.6,4.6,0,0,1-2.1-1.8,4.5,4.5,0,0,1-.8-2.9v-22H160V374h4.1V364h2.8v10h6.8v2.3h-6.8v21.4a2.8,2.8,0,0,0,1.2,2.4,3.6,3.6,0,0,0,2.4.9,6.7,6.7,0,0,0,3-.6l1.6-.8Z" style="fill: #fff"></path><path d="M192.6,403.6a13.9,13.9,0,0,1-5.7-1.2,14.5,14.5,0,0,1-4.5-3.3,16.4,16.4,0,0,1-3.1-4.9,15.8,15.8,0,0,1-1.1-5.8,16.1,16.1,0,0,1,1.9-7.5,13.7,13.7,0,0,1,5.1-5.3,13.2,13.2,0,0,1,7.3-2.1,13,13,0,0,1,7.3,2.1,16.5,16.5,0,0,1,5.1,5.4,15.6,15.6,0,0,1,1.8,7.4v1.2H181.2a12.4,12.4,0,0,0,1.8,6,12.1,12.1,0,0,0,4.2,4.2,10.7,10.7,0,0,0,5.6,1.5,11.6,11.6,0,0,0,5.7-1.5,8.6,8.6,0,0,0,3.7-4.1l2.5.7a10.7,10.7,0,0,1-2.7,3.7,14.9,14.9,0,0,1-4.2,2.6A15.4,15.4,0,0,1,192.6,403.6ZM181,387.5h23.1a15,15,0,0,0-1.8-6.1,12.4,12.4,0,0,0-4.1-4.1,11.4,11.4,0,0,0-11.3,0,12.4,12.4,0,0,0-4.1,4.1A15,15,0,0,0,181,387.5Zm6.7-25.3h3.2l3.5,4.7-1.9.9Z" style="fill: #fff"></path><path d="M255.7,403h-2.8V386.9c0-3.7-.6-6.4-1.7-8.2a6,6,0,0,0-5.3-2.6,9,9,0,0,0-6.3,2.5,13.1,13.1,0,0,0-3.9,6.5V403h-2.8V386.9c0-3.8-.6-6.5-1.7-8.2a5.7,5.7,0,0,0-5.2-2.6,8.8,8.8,0,0,0-6.3,2.5,13.1,13.1,0,0,0-4,6.5V403h-2.8V374h2.6v6.9a16.2,16.2,0,0,1,4.8-5.5,12,12,0,0,1,6.4-1.9,8,8,0,0,1,5.9,2.2,8.7,8.7,0,0,1,2.8,5.7,16.3,16.3,0,0,1,4.9-5.9,11.4,11.4,0,0,1,6.5-2,8.6,8.6,0,0,1,4.1.9,7.2,7.2,0,0,1,2.7,2.5,9.6,9.6,0,0,1,1.6,4,29.2,29.2,0,0,1,.5,5.4Z" style="fill: #fff"></path><path d="M276.5,403.6a13.9,13.9,0,0,1-10.3-4.5,16.1,16.1,0,0,1-3-4.9,15.8,15.8,0,0,1-1.1-5.8,14.9,14.9,0,0,1,1.9-7.5,13.7,13.7,0,0,1,5.1-5.3,12.9,12.9,0,0,1,7.2-2.1,13.1,13.1,0,0,1,7.4,2.1,15.2,15.2,0,0,1,5,5.4,14.6,14.6,0,0,1,1.9,7.4v1.2H265a13.7,13.7,0,0,0,1.9,6,12.1,12.1,0,0,0,4.2,4.2,10.6,10.6,0,0,0,5.5,1.5,11.6,11.6,0,0,0,5.7-1.5,8.8,8.8,0,0,0,3.8-4.1l2.5.7a10.7,10.7,0,0,1-2.7,3.7,14.1,14.1,0,0,1-4.3,2.6A14.4,14.4,0,0,1,276.5,403.6Zm-11.6-16.1h23a12.5,12.5,0,0,0-1.8-6.1,11.5,11.5,0,0,0-4.1-4.1,11.2,11.2,0,0,0-11.2,0,12.4,12.4,0,0,0-4.1,4.1A15,15,0,0,0,264.9,387.5Z" style="fill: #fff"></path><path d="M306,403.6a17.5,17.5,0,0,1-6.5-1.2,14.3,14.3,0,0,1-5.2-3.6l1.3-1.9a16.3,16.3,0,0,0,4.9,3.3,13.3,13.3,0,0,0,5.4,1,10.7,10.7,0,0,0,6-1.5,5,5,0,0,0,2.4-4.4,4,4,0,0,0-1.1-2.9,9.6,9.6,0,0,0-3.2-1.7c-1.3-.4-3-.9-4.9-1.3a40.9,40.9,0,0,1-5-1.7,6.6,6.6,0,0,1-3.1-2.1,5.8,5.8,0,0,1-1-3.7,7.9,7.9,0,0,1,1.4-4.7,10.3,10.3,0,0,1,3.9-2.8,15.3,15.3,0,0,1,5.4-.9,15.7,15.7,0,0,1,6,1.1,9.1,9.1,0,0,1,3.8,3l-1.5,1.8a8.2,8.2,0,0,0-3.6-2.7,15.1,15.1,0,0,0-8.7-.3,6.5,6.5,0,0,0-2.9,1.8,5.3,5.3,0,0,0-1.1,3.4,4,4,0,0,0,.8,2.6,5.3,5.3,0,0,0,2.4,1.6L306,387c2.2.6,4.2,1.2,5.8,1.8a8.3,8.3,0,0,1,3.9,2.3,5.8,5.8,0,0,1,1.3,4,7.4,7.4,0,0,1-3,6.2A13.1,13.1,0,0,1,306,403.6Z" style="fill: #fff"></path></g></svg>