<?xml version="1.0" encoding="utf-8"?>
<!-- Generator: Adobe Illustrator 26.5.0, SVG Export Plug-In . SVG Version: 6.00 Build 0)  -->
<svg version="1.1" id="Layer_1" xmlns="http://www.w3.org/2000/svg" xmlns:xlink="http://www.w3.org/1999/xlink" x="0px" y="0px"
	 viewBox="0 0 512 512" style="enable-background:new 0 0 512 512;" xml:space="preserve">
<style type="text/css">
	.st0{fill:#231F20;}
	.st1{fill:#EE2E24;}
</style>
<g id="XMLID_41_">
	<path id="XMLID_56_" class="st0" d="M332.03,284.76H318v-57.51h45.31c0,0,8.28-0.28,13.61,4.91c0,0,5.33,4.49,5.33,15.57v37.03
		h-14.03v-38.01c0,0,0.14-3.93-1.12-5.19c0,0-1.12-1.54-3.37-1.54h-31.7V284.76L332.03,284.76z M392.07,284.76v-53.87v-3.65h56.53
		v12.76h-42.5v9.82h29.6v12.34h-29.6v9.82h42.78v12.76L392.07,284.76L392.07,284.76z M293.45,284.76v-53.87v-3.65h14.03v57.51
		H293.45z M472.44,236.5v-1.96V236.5z M468.8,284.76v-44.75h-13.19v-12.76h52.74v12.76h-25.39v44.75H468.8z M250.67,236.5v-1.96
		V236.5z M247.02,284.76v-44.75h-13.19v-12.76h52.74v12.76h-25.39v44.75H247.02z M204.66,249.83c3.37,0,5.47,0,6.31-0.56
		c0,0,1.4-0.84,1.4-2.52v-3.79c0-1.68-1.4-2.52-1.4-2.52c-1.12-0.56-2.95-0.42-7.29-0.42h-27.35v9.82h29.04H204.66L204.66,249.83z
		 M212.23,284.76v-19.64c0-1.82-1.54-2.52-1.54-2.52c-0.7-0.42-2.67-0.42-5.61-0.42h0.7h-29.6v22.58h-14.03v-53.87v-3.65h43.77
		c7.57,0,12.76,1.12,16.41,4.63c3.51,3.65,4.07,8.28,4.07,13.19v4.07c0,4.21-2.1,8-4.77,10.24l0.56,0.28
		c1.12,0.56,1.68,1.26,1.68,1.26c1.96,2.52,1.96,4.77,1.96,7.43v16.41H212.23L212.23,284.76z M0,227.24v3.65v53.87h14.03v-22.58
		h42.5v-12.34h-42.5v-9.82H63.4v-12.76L0,227.24L0,227.24z"/>
	<path id="XMLID_65_" class="st0" d="M503.44,274.66v2.67h2.52c0.7,0,1.26-0.14,1.4-1.12c0.14-1.26-0.84-1.4-1.4-1.4h-2.52V274.66z
		 M502.46,273.81h3.37c1.12,0,2.38,0.28,2.38,1.96c0,0.98-0.28,1.4-0.98,1.96c0.84,0.56,0.84,0.56,0.98,1.96
		c0.14,0.98,0,1.12,0.42,1.82h-1.12l-0.14-0.98c-0.14-0.84,0.28-2.38-1.26-2.38h-2.52v3.23h-0.98L502.46,273.81L502.46,273.81z
		 M504.99,271.71c-3.37,0-6.17,2.81-6.17,6.17s2.81,6.17,6.17,6.17s6.17-2.81,6.17-6.17C511.16,274.38,508.49,271.71,504.99,271.71
		 M504.99,284.76c-3.79,0-7.01-3.09-7.01-7.01c0-3.79,3.09-7.01,7.01-7.01c3.79,0,7.01,3.09,7.01,7.01S508.91,284.76,504.99,284.76"
		/>
	<path id="XMLID_78_" class="st1" d="M142.94,285.32c4.63-1.54,8.14-6.73,8.98-13.47v-1.82h-23.43v15.29H142.94z M151.92,241.97
		v-1.68c-0.84-6.87-4.77-12.34-9.54-13.61h-13.75v15.29H151.92z M69.72,270.03v1.82c0.84,6.59,4.35,11.92,8.98,13.47H93v-15.29
		H69.72z M79.25,226.68c-4.91,1.26-8.7,6.73-9.54,13.61v1.68H93v-15.29H79.25z M151.92,248.28h-23.43v15.29h23.43V248.28z
		 M99.31,285.32h22.86v-15.29H99.31V285.32z M122.18,226.68H99.31v15.29h22.86V226.68z M69.72,263.72H93v-15.29H69.72
		C69.72,248.43,69.72,263.72,69.72,263.72z"/>
</g>
</svg>
